<?xml version="1.0" standalone="no"?>
<!DOCTYPE svg PUBLIC "-//W3C//DTD SVG 20010904//EN"
 "http://www.w3.org/TR/2001/REC-SVG-20010904/DTD/svg10.dtd">
<svg version="1.0" xmlns="http://www.w3.org/2000/svg"
 width="422.000000pt" height="422.000000pt" viewBox="0 0 422.000000 422.000000"
 preserveAspectRatio="xMidYMid meet">
<metadata>
Created by potrace 1.14, written by Peter Selinger 2001-2017
</metadata>
<g transform="translate(0.000000,422.000000) scale(0.100000,-0.100000)"
fill="#000000" stroke="none">
<path d="M2475 3699 c-82 -16 -184 -38 -225 -50 -158 -43 -304 -135 -298 -188
3 -25 6 -26 60 -26 32 0 54 -3 50 -6 -4 -4 -106 -35 -227 -70 -121 -34 -226
-67 -232 -72 -19 -14 -16 -45 5 -56 10 -6 41 -8 68 -6 241 19 413 34 442 40 9
1 62 6 116 10 55 4 107 8 115 10 21 4 179 14 311 20 67 3 99 2 90 -4 -26 -16
-244 -68 -360 -86 -19 -3 -42 -8 -50 -10 -8 -2 -33 -6 -55 -10 -22 -3 -89 -15
-150 -26 -60 -12 -121 -23 -135 -25 -14 -3 -59 -12 -100 -20 -41 -9 -87 -17
-102 -19 -54 -8 -325 -67 -438 -96 -173 -45 -342 -105 -362 -130 -26 -31 -8
-59 34 -54 108 10 333 51 543 97 99 22 189 41 200 44 11 2 44 10 72 17 45 12
55 12 64 1 17 -21 44 -18 336 30 148 24 300 47 338 51 39 4 79 9 90 11 11 2
72 7 135 10 63 3 121 7 128 9 6 3 12 0 12 -4 0 -22 -457 -117 -985 -206 -398
-67 -641 -119 -648 -138 -7 -18 11 -57 26 -57 7 0 102 18 211 40 108 22 205
40 214 39 9 0 -64 -18 -163 -39 -316 -69 -443 -101 -455 -116 -10 -11 -9 -19
3 -38 l16 -24 78 19 c101 24 379 86 418 93 17 3 75 15 130 27 55 11 111 23
124 25 278 53 846 172 996 208 66 16 90 38 74 68 -7 13 -6 19 3 22 7 3 45 14
83 26 141 43 155 50 155 75 0 26 -8 33 -42 41 -36 9 -368 12 -425 4 -58 -7
-61 2 -8 20 31 10 40 20 36 42 0 4 37 26 84 48 88 43 110 69 83 97 -12 11 -49
14 -179 14 -90 0 -191 -2 -224 -5 -33 -2 -105 -8 -159 -11 -55 -4 -107 -8
-115 -10 -9 -2 -56 -6 -105 -10 -50 -3 -94 -8 -98 -11 -4 -3 -8 -1 -8 5 0 9
23 18 105 41 17 4 113 33 215 64 102 31 275 81 385 111 235 65 245 69 245 94
0 41 -46 48 -170 26 -14 -3 -43 -8 -65 -11 -22 -3 -85 -16 -140 -29 -55 -13
-158 -38 -229 -55 -71 -17 -143 -33 -160 -36 -17 -3 -49 -9 -71 -14 -22 -5
-41 -7 -43 -5 -6 6 109 45 118 40 4 -2 34 4 66 16 33 11 115 31 184 45 69 14
133 27 142 30 38 11 29 76 -11 73 -9 -1 -83 -14 -166 -30z m-418 -365 c-3 -3
-12 -4 -19 -1 -8 3 -5 6 6 6 11 1 17 -2 13 -5z m-134 -541 c-7 -2 -19 -2 -25
0 -7 3 -2 5 12 5 14 0 19 -2 13 -5z m-73 -13 c-14 -4 -34 -8 -45 -8 -16 0 -15
2 5 8 14 4 34 8 45 8 16 0 15 -2 -5 -8z"/>
<path d="M2870 2875 c-36 -7 -87 -16 -115 -19 -27 -4 -59 -9 -70 -11 -11 -3
-31 -7 -45 -9 -176 -29 -342 -68 -500 -117 -69 -21 -174 -50 -235 -63 -93 -21
-238 -58 -322 -82 -25 -7 -37 -33 -27 -59 9 -24 50 -20 362 35 123 21 171 26
195 19 18 -5 83 -12 146 -16 l114 -6 -59 -30 c-176 -89 -252 -190 -271 -362
-9 -76 -9 -390 -1 -560 4 -71 7 -169 7 -217 1 -86 1 -88 28 -94 39 -10 50 12
47 98 -9 258 -11 733 -4 784 10 64 45 141 83 182 51 56 153 111 353 192 26 10
37 45 19 60 -19 16 -50 20 -152 21 -51 0 -93 2 -93 4 0 3 96 27 160 40 99 20
295 78 304 90 6 8 58 27 116 42 108 29 128 45 100 78 -15 18 -52 18 -140 0z"/>
<path d="M889 1018 c-12 -40 -7 -42 76 -39 81 2 85 -1 84 -77 0 -37 -1 -133 0
-214 1 -134 3 -146 19 -143 9 2 19 4 22 4 3 1 5 90 4 199 -1 108 1 205 3 215
3 13 13 18 31 17 15 -1 51 -2 80 -1 45 1 52 4 52 21 0 19 -7 20 -185 20 -102
0 -185 -1 -186 -2z"/>
<path d="M2109 1018 c-6 -16 -3 -456 4 -465 5 -6 15 -9 23 -6 11 4 14 30 13
119 0 100 3 119 21 149 23 37 68 53 115 41 41 -10 53 -49 53 -176 0 -63 1
-120 1 -125 1 -6 10 -11 21 -11 22 0 22 0 22 154 0 109 -7 144 -36 171 -44 42
-146 33 -183 -16 -11 -14 -13 -6 -14 48 -1 35 0 76 1 92 1 21 -3 27 -19 27
-12 0 -21 -1 -22 -2z"/>
<path d="M3316 788 c1 -128 2 -236 3 -240 0 -3 9 -5 19 -4 16 3 17 23 20 239
l2 237 -22 0 -23 0 1 -232z"/>
<path d="M2829 958 c-1 -18 -1 -41 0 -50 2 -14 -5 -18 -28 -18 -24 0 -31 -4
-31 -20 0 -16 7 -20 30 -20 l30 0 0 -137 c0 -76 4 -143 8 -150 4 -6 29 -14 55
-17 42 -5 47 -4 47 14 0 15 -7 20 -29 20 -17 0 -31 6 -35 16 -3 9 -6 69 -6
135 l0 119 35 0 c29 0 35 4 35 21 0 18 -5 21 -35 17 l-35 -4 0 53 c0 46 -3 53
-20 53 -16 0 -20 -7 -21 -32z"/>
<path d="M1512 892 c-37 -11 -81 -61 -93 -105 -36 -134 27 -248 137 -250 77
-1 130 35 149 101 10 34 -31 30 -49 -7 -45 -87 -165 -71 -197 26 -6 19 -8 37
-4 41 4 4 59 8 123 8 65 1 122 2 128 3 8 1 9 12 4 36 -4 19 -6 35 -3 35 11 0
-43 82 -63 95 -26 17 -100 26 -132 17z m98 -47 c31 -16 43 -34 54 -76 l6 -27
-110 0 c-61 0 -110 2 -110 4 0 20 33 75 55 92 33 26 65 28 105 7z"/>
<path d="M1850 889 c-66 -26 -105 -99 -101 -186 4 -83 38 -134 107 -158 82
-28 166 13 189 93 10 34 -31 30 -49 -6 -22 -43 -43 -55 -91 -55 -51 0 -80 20
-101 70 -23 54 -16 58 114 58 64 -1 122 1 128 3 13 4 2 79 -17 115 -35 64
-111 93 -179 66z m107 -46 c23 -15 53 -67 53 -92 0 -11 -208 -12 -215 -1 -3 5
2 24 11 43 29 62 98 85 151 50z"/>
<path d="M2535 885 c-113 -48 -133 -243 -34 -318 54 -40 145 -39 195 2 71 58
81 221 17 281 -49 45 -122 59 -178 35z m140 -59 c32 -34 40 -68 37 -144 -3
-44 -55 -99 -102 -107 -123 -20 -179 181 -74 264 39 31 104 25 139 -13z"/>
<path d="M3060 888 c-61 -23 -100 -88 -100 -168 0 -145 99 -218 224 -166 34
14 76 66 76 94 0 21 -40 13 -49 -10 -23 -61 -96 -83 -151 -46 -33 22 -67 88
-55 107 2 4 61 7 130 7 77 -1 125 3 126 9 6 50 -26 130 -62 156 -33 24 -100
32 -139 17z m101 -44 c27 -13 59 -65 59 -93 0 -12 -191 -13 -210 -1 -16 10 10
61 46 89 32 25 64 27 105 5z"/>
<path d="M1230 717 c0 -166 1 -173 20 -173 19 0 20 7 20 98 0 63 5 111 14 133
15 35 67 75 99 75 10 0 17 8 17 20 0 35 -56 26 -96 -14 l-34 -34 0 34 c0 27
-4 34 -20 34 -19 0 -20 -7 -20 -173z"/>
</g>
</svg>
